<?xml version="1.0" standalone="no"?>
<!DOCTYPE svg PUBLIC "-//W3C//DTD SVG 20010904//EN"
 "http://www.w3.org/TR/2001/REC-SVG-20010904/DTD/svg10.dtd">
<svg version="1.0" xmlns="http://www.w3.org/2000/svg"
 width="600.000000pt" height="600.000000pt" viewBox="0 0 600.000000 600.000000"
 preserveAspectRatio="xMidYMid meet">
<metadata>
Created by potrace 1.11, written by Peter Selinger 2001-2013
</metadata>
<g transform="translate(0.000000,600.000000) scale(0.100000,-0.100000)"
fill="#000000" stroke="none">
<path d="M2905 5423 c-96 -27 -111 -32 -265 -78 -85 -26 -175 -53 -200 -60
-25 -7 -83 -24 -130 -38 -441 -134 -846 -250 -942 -272 -193 -43 -285 -97
-295 -175 -5 -38 -3 -43 40 -83 l46 -42 0 -80 c1 -44 3 -91 6 -105 10 -46 7
-185 -5 -214 -6 -17 -28 -48 -49 -71 -86 -94 -90 -135 -21 -236 62 -90 64
-112 23 -211 -93 -226 -103 -274 -75 -362 14 -43 22 -51 60 -69 87 -38 267
-26 314 20 56 57 29 274 -63 499 -12 30 -11 34 21 67 65 70 72 132 25 252 -36
94 -73 207 -81 247 -10 51 -8 148 5 195 l11 41 88 -23 c48 -14 222 -70 387
-126 361 -121 732 -236 1020 -313 109 -30 124 -32 160 -20 22 7 225 69 450
139 226 70 428 133 450 141 39 13 215 65 425 125 58 17 162 43 231 59 175 40
230 71 262 150 27 64 18 81 -54 107 -323 119 -944 310 -1674 514 -22 6 -58 17
-80 24 -32 9 -50 9 -90 -2z"/>
<path d="M1756 4341 c-2 -3 -5 -49 -6 -101 0 -52 -3 -111 -5 -130 -3 -19 -8
-132 -11 -250 -7 -203 -8 -216 -28 -229 -42 -30 -89 -87 -114 -141 -22 -48
-25 -69 -25 -155 1 -208 90 -430 230 -573 18 -19 33 -37 34 -40 0 -4 2 -39 4
-77 3 -83 27 -172 60 -225 31 -49 85 -70 195 -77 l87 -6 27 -43 c56 -88 187
-187 318 -241 241 -99 582 -99 837 -2 143 54 268 145 332 238 31 47 37 51 75
51 53 0 125 22 164 50 60 43 102 168 94 285 -3 48 -1 52 33 75 91 62 178 207
219 363 61 238 30 415 -94 528 -58 53 -56 44 -37 139 27 135 25 331 -6 507 -9
52 -14 63 -28 59 -9 -3 -67 -22 -130 -42 -63 -20 -122 -37 -130 -39 -9 -2 -36
-10 -61 -18 -42 -15 -372 -117 -505 -157 -33 -10 -120 -37 -194 -60 -145 -45
-146 -45 -266 -7 -159 50 -804 248 -822 252 -10 2 -69 19 -131 38 -62 19 -114
32 -116 28z m564 -587 c41 -8 224 -51 405 -94 182 -43 341 -81 355 -84 14 -3
89 -19 168 -35 79 -17 162 -33 185 -36 23 -3 71 -11 107 -17 36 -6 151 -12
256 -13 186 -1 193 -2 247 -28 30 -15 58 -35 62 -44 3 -10 6 -53 6 -98 -1
-207 -117 -375 -279 -401 -35 -5 -41 -10 -46 -38 -3 -17 -6 -33 -6 -36 1 -14
-44 -130 -75 -194 -108 -221 -353 -395 -615 -435 -434 -68 -827 162 -950 554
-12 39 -24 81 -26 95 -6 30 -3 27 -40 33 -99 15 -216 112 -272 226 -33 66 -37
85 -39 158 -2 75 15 162 36 186 4 4 47 12 97 18 99 12 149 35 214 100 38 38
101 136 115 178 8 25 2 25 95 5z"/>
<path d="M2057 2015 c-36 -24 -177 -114 -314 -198 -136 -84 -295 -185 -352
-226 -172 -122 -309 -270 -397 -428 -34 -60 -88 -205 -99 -261 -3 -15 -7 -38
-11 -52 -3 -14 -8 -78 -11 -142 l-5 -118 93 -1 c52 0 150 -2 219 -4 807 -24
2650 -24 3525 0 72 2 165 4 208 4 l78 1 -2 106 c-1 58 -5 122 -9 142 -5 21
-11 54 -14 76 -25 164 -144 376 -290 520 -112 110 -306 249 -492 352 -27 15
-140 78 -251 141 -112 62 -204 113 -207 113 -2 0 -6 -10 -9 -22 -10 -46 -370
-1017 -442 -1193 -20 -49 -40 -97 -43 -105 -3 -8 -16 39 -27 105 -12 66 -36
174 -54 240 -60 217 -59 199 -13 249 79 85 112 183 108 314 -1 48 -8 99 -14
114 l-11 26 -295 1 -295 0 -12 -57 c-14 -70 -7 -183 17 -242 22 -58 64 -119
109 -161 25 -24 35 -40 31 -54 -2 -11 -9 -36 -14 -55 -5 -19 -26 -105 -46
-190 -19 -85 -40 -168 -45 -185 -6 -16 -15 -50 -21 -75 -9 -33 -14 -40 -21
-29 -7 14 -157 410 -163 434 -2 6 -8 21 -13 35 -6 14 -38 99 -71 190 -63 171
-174 474 -219 595 -15 39 -30 74 -33 78 -4 4 -36 -13 -73 -38z"/>
</g>
</svg>
